# xmcd
# 
# Track frame offsets:
#     150
#     12892
#     26057
#     39685
#     54617
#     67390
#     84729
#     104237
#     113765
#     127957
#     141357
#     153065
# 
# Disc length: 2216
# 
# Revision: 2
# Processed by: cddbd v1.5.2PL0 Copyright (c) Steve Scherf et al.
# Submitted via: fre:ac v1.0.27
# 
DISCID=ab08a60c
DTITLE=De Räuber - Dat es ene Hammer
DYEAR=1996
DGENRE=Kölsch - Karneval
TTITLE0=Dat es ene Hammer
TTITLE1=Kumm ahn de Thek
TTITLE2=Namibia
TTITLE3=E beßje Lüje
TTITLE4=Musik, Bier un e Mädche
TTITLE5=fass io d'r Äd
TTITLE6=Denk nit zuvill
TTITLE7=Hück noch he - morje do
TTITLE8=Ja im Wald ...
TTITLE9=Fiesta Colonia
TTITLE10=En 100 Johr
TTITLE11=Am Eng
EXTD=
EXTT0=
EXTT1=
EXTT2=
EXTT3=
EXTT4=
EXTT5=
EXTT6=
EXTT7=
EXTT8=
EXTT9=
EXTT10=
EXTT11=
PLAYORDER=
